<?xml version="1.0" standalone="no"?><!DOCTYPE svg PUBLIC "-//W3C//DTD SVG 1.1//EN" "http://www.w3.org/Graphics/SVG/1.1/DTD/svg11.dtd"><svg class="icon" height="512" viewBox="0 0 1024 1024" version="1.1" xmlns="http://www.w3.org/2000/svg"><path d="M972.8 136.533333 870.4 136.533333C860.9792 136.533333 853.333333 144.1792 853.333333 153.6 853.333333 163.0208 860.9792 170.666667 870.4 170.666667L972.8 170.666667C982.203733 170.666667 989.866667 178.3296 989.866667 187.733333L989.866667 972.8C989.866667 982.203733 982.203733 989.866667 972.8 989.866667L819.2 989.866667 819.2 273.066667 921.6 273.066667C931.0208 273.066667 938.666667 265.4208 938.666667 256 938.666667 246.5792 931.0208 238.933333 921.6 238.933333L819.2 238.933333 819.2 85.333333C819.2 56.6272 796.706133 34.133333 768 34.133333L665.6 34.133333C637.371733 34.133333 614.4 57.105067 614.4 85.333333L614.4 989.866667 443.733333 989.866667 443.733333 102.4 563.2 102.4C572.6208 102.4 580.266667 94.754133 580.266667 85.333333 580.266667 75.912533 572.6208 68.266667 563.2 68.266667L443.733333 68.266667 443.733333 51.2C443.733333 22.493867 421.239467 0 392.533333 0L221.866667 0C193.6384 0 170.666667 22.971733 170.666667 51.2L170.666667 204.8 85.333333 204.8C75.912533 204.8 68.266667 212.445867 68.266667 221.866667 68.266667 231.287467 75.912533 238.933333 85.333333 238.933333L170.666667 238.933333 170.666667 989.866667 51.2 989.866667C41.796267 989.866667 34.133333 982.203733 34.133333 972.8L34.133333 153.6C34.133333 144.196267 41.796267 136.533333 51.2 136.533333L119.466667 136.533333C128.887467 136.533333 136.533333 128.887467 136.533333 119.466667 136.533333 110.045867 128.887467 102.4 119.466667 102.4L51.2 102.4C22.971733 102.4 0 125.371733 0 153.6L0 972.8C0 1001.028267 22.971733 1024 51.2 1024L972.8 1024C1001.028267 1024 1024 1001.028267 1024 972.8L1024 187.733333C1024 159.505067 1001.028267 136.533333 972.8 136.533333L972.8 136.533333ZM648.533333 170.666667 733.866667 170.666667C743.287467 170.666667 750.933333 163.0208 750.933333 153.6 750.933333 144.1792 743.287467 136.533333 733.866667 136.533333L648.533333 136.533333 648.533333 85.333333C648.533333 75.758933 656.0256 68.266667 665.6 68.266667L768 68.266667C777.728 68.266667 785.066667 75.605333 785.066667 85.333333L785.066667 989.866667 648.533333 989.866667 648.533333 170.666667 648.533333 170.666667ZM204.8 136.533333 358.4 136.533333C367.8208 136.533333 375.466667 128.887467 375.466667 119.466667 375.466667 110.045867 367.8208 102.4 358.4 102.4L204.8 102.4 204.8 51.2C204.8 41.6256 212.292267 34.133333 221.866667 34.133333L392.533333 34.133333C402.261333 34.133333 409.6 41.472 409.6 51.2L409.6 989.866667 204.8 989.866667 204.8 136.533333 204.8 136.533333ZM119.466667 477.866667 85.333333 477.866667C75.912533 477.866667 68.266667 485.512533 68.266667 494.933333 68.266667 504.354133 75.912533 512 85.333333 512L119.466667 512C128.887467 512 136.533333 504.354133 136.533333 494.933333 136.533333 485.512533 128.887467 477.866667 119.466667 477.866667M119.466667 409.6 85.333333 409.6C75.912533 409.6 68.266667 417.245867 68.266667 426.666667 68.266667 436.087467 75.912533 443.733333 85.333333 443.733333L119.466667 443.733333C128.887467 443.733333 136.533333 436.087467 136.533333 426.666667 136.533333 417.245867 128.887467 409.6 119.466667 409.6M119.466667 887.466667 85.333333 887.466667C75.912533 887.466667 68.266667 895.112533 68.266667 904.533333 68.266667 913.954133 75.912533 921.6 85.333333 921.6L119.466667 921.6C128.887467 921.6 136.533333 913.954133 136.533333 904.533333 136.533333 895.112533 128.887467 887.466667 119.466667 887.466667M119.466667 819.2 85.333333 819.2C75.912533 819.2 68.266667 826.845867 68.266667 836.266667 68.266667 845.687467 75.912533 853.333333 85.333333 853.333333L119.466667 853.333333C128.887467 853.333333 136.533333 845.687467 136.533333 836.266667 136.533333 826.845867 128.887467 819.2 119.466667 819.2M733.866667 887.466667 699.733333 887.466667C690.312533 887.466667 682.666667 895.112533 682.666667 904.533333 682.666667 913.954133 690.312533 921.6 699.733333 921.6L733.866667 921.6C743.287467 921.6 750.933333 913.954133 750.933333 904.533333 750.933333 895.112533 743.287467 887.466667 733.866667 887.466667M733.866667 819.2 699.733333 819.2C690.312533 819.2 682.666667 826.845867 682.666667 836.266667 682.666667 845.687467 690.312533 853.333333 699.733333 853.333333L733.866667 853.333333C743.287467 853.333333 750.933333 845.687467 750.933333 836.266667 750.933333 826.845867 743.287467 819.2 733.866667 819.2M733.866667 409.6 699.733333 409.6C690.312533 409.6 682.666667 417.245867 682.666667 426.666667 682.666667 436.087467 690.312533 443.733333 699.733333 443.733333L733.866667 443.733333C743.287467 443.733333 750.933333 436.087467 750.933333 426.666667 750.933333 417.245867 743.287467 409.6 733.866667 409.6M733.866667 341.333333 699.733333 341.333333C690.312533 341.333333 682.666667 348.9792 682.666667 358.4 682.666667 367.8208 690.312533 375.466667 699.733333 375.466667L733.866667 375.466667C743.287467 375.466667 750.933333 367.8208 750.933333 358.4 750.933333 348.9792 743.287467 341.333333 733.866667 341.333333M733.866667 273.066667 699.733333 273.066667C690.312533 273.066667 682.666667 280.712533 682.666667 290.133333 682.666667 299.554133 690.312533 307.2 699.733333 307.2L733.866667 307.2C743.287467 307.2 750.933333 299.554133 750.933333 290.133333 750.933333 280.712533 743.287467 273.066667 733.866667 273.066667M358.4 887.466667 256 887.466667C246.5792 887.466667 238.933333 895.112533 238.933333 904.533333 238.933333 913.954133 246.5792 921.6 256 921.6L358.4 921.6C367.8208 921.6 375.466667 913.954133 375.466667 904.533333 375.466667 895.112533 367.8208 887.466667 358.4 887.466667M358.4 819.2 256 819.2C246.5792 819.2 238.933333 826.845867 238.933333 836.266667 238.933333 845.687467 246.5792 853.333333 256 853.333333L358.4 853.333333C367.8208 853.333333 375.466667 845.687467 375.466667 836.266667 375.466667 826.845867 367.8208 819.2 358.4 819.2M563.2 887.466667 494.933333 887.466667C485.512533 887.466667 477.866667 895.112533 477.866667 904.533333 477.866667 913.954133 485.512533 921.6 494.933333 921.6L563.2 921.6C572.6208 921.6 580.266667 913.954133 580.266667 904.533333 580.266667 895.112533 572.6208 887.466667 563.2 887.466667M563.2 819.2 494.933333 819.2C485.512533 819.2 477.866667 826.845867 477.866667 836.266667 477.866667 845.687467 485.512533 853.333333 494.933333 853.333333L563.2 853.333333C572.6208 853.333333 580.266667 845.687467 580.266667 836.266667 580.266667 826.845867 572.6208 819.2 563.2 819.2M938.666667 887.466667 870.4 887.466667C860.9792 887.466667 853.333333 895.112533 853.333333 904.533333 853.333333 913.954133 860.9792 921.6 870.4 921.6L938.666667 921.6C948.087467 921.6 955.733333 913.954133 955.733333 904.533333 955.733333 895.112533 948.087467 887.466667 938.666667 887.466667M938.666667 819.2 870.4 819.2C860.9792 819.2 853.333333 826.845867 853.333333 836.266667 853.333333 845.687467 860.9792 853.333333 870.4 853.333333L938.666667 853.333333C948.087467 853.333333 955.733333 845.687467 955.733333 836.266667 955.733333 826.845867 948.087467 819.2 938.666667 819.2M358.4 273.066667 256 273.066667C246.5792 273.066667 238.933333 280.712533 238.933333 290.133333L238.933333 529.066667C238.933333 538.487467 246.5792 546.133333 256 546.133333L358.4 546.133333C367.8208 546.133333 375.466667 538.487467 375.466667 529.066667L375.466667 290.133333C375.466667 280.712533 367.8208 273.066667 358.4 273.066667L358.4 273.066667ZM273.066667 307.2 341.333333 307.2 341.333333 512 273.066667 512 273.066667 307.2ZM955.733333 426.666667C955.733333 417.245867 948.087467 409.6 938.666667 409.6 929.245867 409.6 921.6 417.245867 921.6 426.666667L921.6 597.333333C921.6 606.754133 929.245867 614.4 938.666667 614.4 948.087467 614.4 955.733333 606.754133 955.733333 597.333333L955.733333 426.666667M870.4 614.4C879.8208 614.4 887.466667 606.754133 887.466667 597.333333L887.466667 426.666667C887.466667 417.245867 879.8208 409.6 870.4 409.6 860.9792 409.6 853.333333 417.245867 853.333333 426.666667L853.333333 597.333333C853.333333 606.754133 860.9792 614.4 870.4 614.4M580.266667 290.133333C580.266667 280.712533 572.6208 273.066667 563.2 273.066667L494.933333 273.066667C485.512533 273.066667 477.866667 280.712533 477.866667 290.133333L477.866667 529.066667C477.866667 538.487467 485.512533 546.133333 494.933333 546.133333L563.2 546.133333C572.6208 546.133333 580.266667 538.487467 580.266667 529.066667L580.266667 290.133333 580.266667 290.133333ZM512 307.2 546.133333 307.2 546.133333 512 512 512 512 307.2Z" /></svg>