<?xml version="1.0" standalone="no"?><!DOCTYPE svg PUBLIC "-//W3C//DTD SVG 1.1//EN" "http://www.w3.org/Graphics/SVG/1.1/DTD/svg11.dtd"><svg class="icon" height="512" viewBox="0 0 1024 1024" version="1.1" xmlns="http://www.w3.org/2000/svg"><path d="M128 991.696C122.688 992.384 133.472 991.696 128 991.696L128 991.696zM416 223.936l128 0c17.688 0 32-14.304 32-31.992s-14.312-31.992-32-31.992L416 159.952c-17.688 0-32 14.304-32 31.992S398.312 223.936 416 223.936zM416 351.896l128 0c17.688 0 32-14.312 32-31.992 0-17.68-14.312-31.992-32-31.992L416 287.912c-17.688 0-32 14.312-32 31.992C384 337.592 398.312 351.896 416 351.896zM416 479.856l320 0c17.688 0 32-14.312 32-31.992 0-17.68-14.312-31.992-32-31.992L416 415.872c-17.688 0-32 14.312-32 31.992C384 465.552 398.312 479.856 416 479.856zM736 543.832 416 543.832c-17.688 0-32 14.312-32 31.992s14.312 31.992 32 31.992l320 0c17.688 0 32-14.312 32-31.992S753.688 543.832 736 543.832zM736 671.8 416 671.8c-17.688 0-32 14.304-32 31.992 0 17.68 14.312 31.984 32 31.984l320 0c17.688 0 32-14.304 32-31.984C768 686.104 753.688 671.8 736 671.8zM736 799.76 416 799.76c-17.688 0-32 14.304-32 31.984 0 17.688 14.312 31.992 32 31.992l320 0c17.688 0 32-14.304 32-31.992C768 814.064 753.688 799.76 736 799.76zM864 32 384 32c-70.688 0-128 57.296-128 127.96l0 511.832L160 671.792c-88.376 0-160 71.6-160 159.944 0 82.848 47.248 151.832 128 159.952l640 0c70.688 0 128-57.296 128-127.96L896 348.68c73.032-14.84 128-79.344 128-156.728C1024 103.6 952.376 32 864 32zM64 831.744c0-52.912 43.064-95.968 96-95.968l96 0 0 96.28c0 51.92-41.344 93.976-92.904 95.664L160 927.72C107.064 927.72 64 884.664 64 831.744zM832 863.736c0 35.304-28.72 63.984-64 63.984L287.28 927.72c20.216-26.744 32.72-59.608 32.72-95.664L320 159.96c0-35.272 28.72-63.984 64-63.984l127.28 0C531.528 122.784 544 155.776 544 191.952c0 35.768-12.16 68.448-32 95.096l0 64.856 320 0L832 863.736zM864 287.92 586.376 287.92C600.216 258.808 608 226.28 608 191.952s-7.784-66.856-21.624-95.968L864 95.984c52.936 0 96 43.048 96 95.968S916.936 287.92 864 287.92z" /></svg>