<?xml version="1.0" standalone="no"?><!DOCTYPE svg PUBLIC "-//W3C//DTD SVG 1.1//EN" "http://www.w3.org/Graphics/SVG/1.1/DTD/svg11.dtd"><svg class="icon" height="512" viewBox="0 0 1024 1024" version="1.1" xmlns="http://www.w3.org/2000/svg"><path d="M32.935673 0.998051 32.935673 1023.001949 32.935673 0.998051ZM64.873294 0.998051 64.873294 1023.001949 64.873294 0.998051ZM96.810916 0.998051 96.810916 1023.001949 96.810916 0.998051ZM128.748538 0.998051 128.748538 1023.001949 128.748538 0.998051ZM160.68616 0.998051 160.68616 1023.001949 160.68616 0.998051ZM192.623782 0.998051 192.623782 1023.001949 192.623782 0.998051ZM224.561404 0.998051 224.561404 1023.001949 224.561404 0.998051ZM256.499025 0.998051 256.499025 1023.001949 256.499025 0.998051ZM288.436647 0.998051 288.436647 1023.001949 288.436647 0.998051ZM320.374269 0.998051 320.374269 1023.001949 320.374269 0.998051ZM352.311891 0.998051 352.311891 1023.001949 352.311891 0.998051ZM384.249513 0.998051 384.249513 1023.001949 384.249513 0.998051ZM416.187135 0.998051 416.187135 1023.001949 416.187135 0.998051ZM448.124756 0.998051 448.124756 1023.001949 448.124756 0.998051ZM480.062378 0.998051 480.062378 1023.001949 480.062378 0.998051ZM512 0.998051 512 1023.001949 512 0.998051ZM543.937622 0.998051 543.937622 1023.001949 543.937622 0.998051ZM575.875244 0.998051 575.875244 1023.001949 575.875244 0.998051ZM607.812865 0.998051 607.812865 1023.001949 607.812865 0.998051ZM639.750487 0.998051 639.750487 1023.001949 639.750487 0.998051ZM671.688109 0.998051 671.688109 1023.001949 671.688109 0.998051ZM703.625731 0.998051 703.625731 1023.001949 703.625731 0.998051ZM735.563353 0.998051 735.563353 1023.001949 735.563353 0.998051ZM767.500975 0.998051 767.500975 1023.001949 767.500975 0.998051ZM799.438596 0.998051 799.438596 1023.001949 799.438596 0.998051ZM831.376218 0.998051 831.376218 1023.001949 831.376218 0.998051ZM863.31384 0.998051 863.31384 1023.001949 863.31384 0.998051ZM895.251462 0.998051 895.251462 1023.001949 895.251462 0.998051ZM927.189084 0.998051 927.189084 1023.001949 927.189084 0.998051ZM959.126706 0.998051 959.126706 1023.001949 959.126706 0.998051ZM991.064327 0.998051 991.064327 1023.001949 991.064327 0.998051ZM0.998051 32.935673 1023.001949 32.935673 0.998051 32.935673ZM0.998051 64.873294 1023.001949 64.873294 0.998051 64.873294ZM0.998051 96.810916 1023.001949 96.810916 0.998051 96.810916ZM0.998051 128.748538 1023.001949 128.748538 0.998051 128.748538ZM0.998051 160.68616 1023.001949 160.68616 0.998051 160.68616ZM0.998051 192.623782 1023.001949 192.623782 0.998051 192.623782ZM0.998051 224.561404 1023.001949 224.561404 0.998051 224.561404ZM0.998051 256.499025 1023.001949 256.499025 0.998051 256.499025ZM0.998051 288.436647 1023.001949 288.436647 0.998051 288.436647ZM0.998051 320.374269 1023.001949 320.374269 0.998051 320.374269ZM0.998051 352.311891 1023.001949 352.311891 0.998051 352.311891ZM0.998051 384.249513 1023.001949 384.249513 0.998051 384.249513ZM0.998051 416.187135 1023.001949 416.187135 0.998051 416.187135ZM0.998051 448.124756 1023.001949 448.124756 0.998051 448.124756ZM0.998051 480.062378 1023.001949 480.062378 0.998051 480.062378ZM0.998051 512 1023.001949 512 0.998051 512ZM0.998051 543.937622 1023.001949 543.937622 0.998051 543.937622ZM0.998051 575.875244 1023.001949 575.875244 0.998051 575.875244ZM0.998051 607.812865 1023.001949 607.812865 0.998051 607.812865ZM0.998051 639.750487 1023.001949 639.750487 0.998051 639.750487ZM0.998051 671.688109 1023.001949 671.688109 0.998051 671.688109ZM0.998051 703.625731 1023.001949 703.625731 0.998051 703.625731ZM0.998051 735.563353 1023.001949 735.563353 0.998051 735.563353ZM0.998051 767.500975 1023.001949 767.500975 0.998051 767.500975ZM0.998051 799.438596 1023.001949 799.438596 0.998051 799.438596ZM0.998051 831.376218 1023.001949 831.376218 0.998051 831.376218ZM0.998051 863.31384 1023.001949 863.31384 0.998051 863.31384ZM0.998051 895.251462 1023.001949 895.251462 0.998051 895.251462ZM0.998051 927.189084 1023.001949 927.189084 0.998051 927.189084ZM0.998051 959.126706 1023.001949 959.126706 0.998051 959.126706ZM0.998051 991.064327 1023.001949 991.064327 0.998051 991.064327ZM384.249513 586.520452c0 0 203.546448-122.121481 318.144624-73.8817 23.755602-36.197302 47.155899-75.189146 70.065154-114.997396-112.107041-27.466355-260.45929-2.746635-260.45929-2.746635s189.841216-113.89954 306.068211-78.247173c23.304483-42.025918 45.964226-83.478955 67.823532-122.065591-92.59515-6.255782-182.266012 8.687033-182.266012 8.687033s118.915743-71.348647 226.136327-83.435041c33.732117-54.75306 65.042963-97.689201 93.239891-118.835899-559.906433 0-894.253411 638.752437-1022.003899 1022.003899l63.875244 0 191.625731-319.376218c0 0 63.875244 63.875244 255.500975 0 45.385357-15.128452 90.770713-57.140398 135.307727-113.711906-112.396476-28.498339-263.058214-3.393372-263.058214-3.393372z" /></svg>