<?xml version="1.0" standalone="no"?><!DOCTYPE svg PUBLIC "-//W3C//DTD SVG 1.1//EN" "http://www.w3.org/Graphics/SVG/1.1/DTD/svg11.dtd"><svg class="icon" height="512" viewBox="0 0 1024 1024" version="1.1" xmlns="http://www.w3.org/2000/svg"><path d="M128 1024c-12.8 0-21.333333-4.266667-29.866667-12.8l-85.333333-85.333333c-17.066667-17.066667-17.066667-42.666667 0-59.733333s42.666667-17.066667 59.733333 0l85.333333 85.333333c17.066667 17.066667 17.066667 42.666667 0 59.733333C149.333333 1019.733333 140.8 1024 128 1024zM128 1024c-12.8 0-21.333333-4.266667-29.866667-12.8-17.066667-17.066667-17.066667-42.666667 0-59.733333l853.333333-853.333333c17.066667-17.066667 42.666667-17.066667 59.733333 0s17.066667 42.666667 0 59.733333l-853.333333 853.333333C149.333333 1019.733333 140.8 1024 128 1024zM981.333333 170.666667c-12.8 0-21.333333-4.266667-29.866667-12.8l-85.333333-85.333333c-17.066667-17.066667-17.066667-42.666667 0-59.733333s42.666667-17.066667 59.733333 0l85.333333 85.333333c17.066667 17.066667 17.066667 42.666667 0 59.733333C1002.666667 166.4 994.133333 170.666667 981.333333 170.666667zM42.666667 938.666667c-12.8 0-21.333333-4.266667-29.866667-12.8-17.066667-17.066667-17.066667-42.666667 0-59.733333l853.333333-853.333333c17.066667-17.066667 42.666667-17.066667 59.733333 0s17.066667 42.666667 0 59.733333l-853.333333 853.333333C64 934.4 55.466667 938.666667 42.666667 938.666667zM810.666667 341.333333c-12.8 0-21.333333-4.266667-29.866667-12.8l-85.333333-85.333333c-17.066667-17.066667-17.066667-42.666667 0-59.733333s42.666667-17.066667 59.733333 0l85.333333 85.333333c17.066667 17.066667 17.066667 42.666667 0 59.733333C832 337.066667 823.466667 341.333333 810.666667 341.333333zM640 768c-25.6 0-42.666667-17.066667-42.666667-42.666667l0-85.333333c0-25.6 17.066667-42.666667 42.666667-42.666667s42.666667 17.066667 42.666667 42.666667l0 85.333333C682.666667 750.933333 665.6 768 640 768zM640 170.666667c-25.6 0-42.666667-17.066667-42.666667-42.666667L597.333333 42.666667c0-25.6 17.066667-42.666667 42.666667-42.666667s42.666667 17.066667 42.666667 42.666667l0 85.333333C682.666667 153.6 665.6 170.666667 640 170.666667zM384 426.666667 298.666667 426.666667c-25.6 0-42.666667-17.066667-42.666667-42.666667s17.066667-42.666667 42.666667-42.666667l85.333333 0c25.6 0 42.666667 17.066667 42.666667 42.666667S409.6 426.666667 384 426.666667zM981.333333 426.666667l-85.333333 0c-25.6 0-42.666667-17.066667-42.666667-42.666667s17.066667-42.666667 42.666667-42.666667l85.333333 0c25.6 0 42.666667 17.066667 42.666667 42.666667S1006.933333 426.666667 981.333333 426.666667zM460.8 247.466667c-12.8 0-21.333333-4.266667-29.866667-12.8L337.066667 140.8c-17.066667-17.066667-17.066667-42.666667 0-59.733333s42.666667-17.066667 59.733333 0l89.6 89.6c17.066667 17.066667 17.066667 42.666667 0 59.733333C482.133333 243.2 469.333333 247.466667 460.8 247.466667zM913.066667 699.733333c-12.8 0-21.333333-4.266667-29.866667-12.8l-89.6-89.6c-17.066667-17.066667-17.066667-42.666667 0-59.733333s42.666667-17.066667 59.733333 0l89.6 89.6c17.066667 17.066667 17.066667 42.666667 0 59.733333C934.4 695.466667 921.6 699.733333 913.066667 699.733333z" /></svg>