<?xml version="1.0" standalone="no"?><!DOCTYPE svg PUBLIC "-//W3C//DTD SVG 1.1//EN" "http://www.w3.org/Graphics/SVG/1.1/DTD/svg11.dtd"><svg class="icon" height="512" viewBox="0 0 1024 1024" version="1.1" xmlns="http://www.w3.org/2000/svg"><path d="M963.764706 301.176471 903.529412 301.176471 903.529412 361.411765 843.294118 361.411765 843.294118 302.08 783.058824 301.176471 783.058824 542.117647 662.588235 542.117647 662.588235 240.941176C695.657412 240.941176 722.823529 214.799059 722.823529 182.512941 722.823529 182.512941 515.433412 2.529882 482.364235 2.529882L481.400471 2.529882C448.391529 2.529882 241.001412 182.512941 241.001412 182.512941 241.001412 214.799059 270.697412 240.941176 303.706353 240.941176L303.706353 542.117647 179.501176 542.117647 179.501176 361.411765C179.501176 361.411765 151.973647 364.724706 120.530824 362.315294L120.530824 421.647059 60.295529 421.647059 60.295529 361.411765 0.060235 361.411765 0.060235 900.577882C0.060235 934.068706 29.515294 961.234824 62.825412 961.234824L421.647059 961.234824C421.586824 958.704941 421.647059 786.793412 421.647059 786.793412 421.647059 700.837647 484.352 719.028706 484.352 719.028706 484.352 719.028706 547.117176 700.837647 547.117176 786.793412 547.117176 786.793412 547.237647 958.704941 547.117176 961.234824L903.529412 961.234824C936.839529 961.234824 963.764706 931.900235 963.764706 895.759059L963.764706 301.176471 963.764706 301.176471ZM60.235294 602.352941 60.235294 542.117647 120.470588 542.117647 120.470588 602.352941 60.235294 602.352941 60.235294 602.352941ZM180.705882 783.058824 120.470588 783.058824 120.470588 722.823529 180.705882 722.823529 180.705882 783.058824 180.705882 783.058824ZM301.176471 783.058824 240.941176 783.058824 240.941176 722.823529 301.176471 722.823529 301.176471 783.058824 301.176471 783.058824ZM542.117647 421.647059 418.816 421.647059 418.816 297.261176 542.117647 297.261176 542.117647 421.647059 542.117647 421.647059ZM722.823529 783.058824 662.588235 783.058824 662.588235 722.823529 722.823529 722.823529 722.823529 783.058824 722.823529 783.058824ZM843.294118 783.058824 783.058824 783.058824 783.058824 722.823529 843.294118 722.823529 843.294118 783.058824 843.294118 783.058824ZM903.529412 602.352941 842.029176 602.352941 842.029176 542.117647 903.529412 542.117647 903.529412 602.352941 903.529412 602.352941Z" /></svg>