<svg class="icon" height="512" viewBox="0 0 1024 1024" version="1.1" xmlns="http://www.w3.org/2000/svg"><path d="M63.656297 517.227048c0 0 19.22997 16.761756 28.392654 42.462091 9.179057 25.699312 40.955784 37.399795 40.955784 37.399795s-7.989975-15.45704-5.665023-41.792848c2.326998-26.339902 10.541077-46.913473 21.23872-65.152882 10.703783-18.254759 17.424858 10.137895 37.585013 29.689183 29.717835 28.812209 50.915623 38.939871 50.915623 38.939871s-3.738138-14.021342-2.979868-26.051329c1.274016-20.351514 6.4192-31.032784 9.770528-31.248701 7.786337-0.494257 7.836479 6.705726 21.578458 18.153452 12.161994 10.139941 24.134677 11.314697 24.134677 11.314697s1.203408-32.012088 8.652054-41.446971c7.446599-9.431813 10.17371 2.859118 14.491039 8.90788 5.275143 7.387247 11.54801 11.314697 11.54801 11.314697s13.930267-2.879584 25.555026-9.327436c20.677948-11.455913 28.836769-23.974018 28.836769-23.974018s-2.073218 19.158339-16.793478 35.500539c-14.72026 16.350386-38.625716 23.603581-38.625716 23.603581s0.649799 23.341614-11.040451 28.726252c-19.739577 9.082866-49.288566-18.96391-49.288566-18.96391s8.373715 39.171138-17.878183 40.314171c-25.759687 1.12359-84.570117-54.499242-84.570117-54.499242s-8.995885 42.791595 18.655895 101.549837c27.646664 58.749032 106.384959 77.469396 106.384959 77.469396s-1.214664-15.20019 12.276604-35.674501c13.499455-20.473287 34.394345-27.839045 56.510038-31.083949 22.1116-3.242857 44.472887-9.969049 61.254086-23.325241 16.785292-13.354146 36.529985-26.007327 85.2455-31.738865 48.713468-5.730515 92.942809 53.644781 92.942809 53.644781s-6.076392-47.051619-58.650795-72.747861c-52.586682-25.697265-114.552989-17.551748-114.552989-17.551748s17.025769-13.341866 45.964868-16.909112c28.927843-3.564175 53.688783 2.418073 53.688783 2.418073s-15.789615-11.865235-21.926382-32.302707c-6.141884-20.440541-3.177366-41.506323-3.177366-41.506323s33.140795 59.349713 86.561471 73.034387c53.40942 13.677511 97.414657 32.440853 133.460618 57.125045 36.037774 24.680099 59.534931 63.459311 59.534931 63.459311s4.669346-34.798551-28.53694-78.605266c-33.210379-43.808762-87.341231-69.174476-135.154189-87.306438-47.819099-18.128893-66.790172-53.240575-66.790172-53.240575s37.401842 19.682271 97.27958 5.238304c59.888995-14.447037 84.146469-66.75231 84.146469-66.75231s-41.057091 26.03291-93.747127 23.642466c-52.679803-2.379187-87.047542-22.141276-87.047542-22.141276s94.14417-18.578124 139.647527-65.233724c45.515636-46.656623 46.99943-79.239715 79.756485-105.392352 32.772404-26.15673 87.741343-24.073278 87.741343-24.073278s-60.306504-23.267936-115.65509 2.028193c-55.354725 25.300222-85.248569 80.999802-127.73215 94.833879-42.478464 13.833053-70.073962-18.395976-57.30924-44.721551 12.769838-26.328645 65.800635-28.980032 65.800635-28.980032s-59.072397-19.142989-95.965655 12.098549c-36.890188 31.243585-40.416502 71.328535-40.416502 71.328535l-37.455053 6.742565c0 0 5.103228-30.119995 26.690896-58.439994 21.581528-28.329209 43.989887-35.644825 75.271334-84.002183 31.262004-48.356334 19.720134-88.819908 19.720134-88.819908s-4.230348 24.711821-27.077705 49.488111c-22.851451 24.783453-64.784492 41.456181-128.602983 91.111091-63.836911 49.65184-70.888514 100.67491-73.839729 121.550357-2.952238 20.866237-28.293393 21.658276-44.49847 26.580379-16.193821 4.927219-36.33658 14.265912-41.251519 34.284851-4.903683 20.018939-27.707039 22.265096-50.485835 16.741289-22.774703-5.526877-55.069223-18.798135-71.264067-24.847921-16.188704-6.060019-34.811854-13.366426-53.579289-3.978614-18.769482 9.395998-8.05035 50.990325-0.871857 78.075193C80.612481 481.249649 63.656297 517.227048 63.656297 517.227048zM276.697391 418.73485c0 0 18.886139-10.94426 49.282427-21.059642 28.393677-9.451256 48.276517-29.393447 50.78157-31.979342 0.164752-0.183172 0.26299-0.283456 0.26299-0.283456s-0.089028 0.100284-0.26299 0.283456c-2.7486 2.87856-25.810852 27.448142-26.616194 39.111786-0.852414 12.398378 9.897418 17.083074 9.897418 17.083074s-25.337061-4.847401-47.426149-5.684466C290.527374 415.371242 276.697391 418.73485 276.697391 418.73485zM586.282309 891.709021c7.723915-53.333696 47.6523-92.230588 68.908416-108.522646 21.259186-16.295128 83.053578-36.977169 110.552885 2.63399 42.116213 60.660568-9.6815 125.533065-9.6815 125.533065s71.989591-22.1423 101.407598-112.733551c29.41596-90.591251 4.14132-132.739187 6.842849-186.262194 2.685155-53.525054 44.062542-55.06206 51.190893 1.944282 7.134491 56.998155-6.493901 108.557438-6.493901 108.557438s53.15564-40.729633 50.857295-123.973546c-2.300392-83.244936-50.40397-133.837194-107.908662-175.651532-57.520041-41.815361-9.1678-37.700647 31.29168-15.72003 54.565756 29.66053 70.225411 76.102259 70.225411 76.102259s11.000542-35.332716-3.428076-77.844949c-14.420431-42.513256-51.93279-71.520917-87.911212-82.59923-35.974329-11.082406-14.843056-25.433252 20.617573-28.751834 35.462676-3.321652 73.360821 8.996908 73.360821 8.996908s-49.362244-43.057655-116.805286-43.281759c-67.424622-0.225127-92.786243 27.956725-135.562489 67.913762-39.816844 37.193087-93.211938 52.423977-93.211938 52.423977s33.004695 3.194762 71.381747-5.843078c38.364773-9.038864 82.886779-34.158984 82.886779-34.158984s-0.662079 31.448246-45.74895 79.477123c-45.097104 48.028876-110.811782 44.763506-110.811782 44.763506s18.054191 13.489222 67.185168 32.854269c50.708915 19.986193 96.379071 58.439994 111.01235 105.23374 16.178471 51.744501-3.808746 91.560322-3.808746 91.560322s-29.888727-48.143487-93.927229-90.209558c-64.039525-42.060955-146.06468-56.82317-146.06468-56.82317s14.072507 7.52437 29.811979 20.166295c15.730263 12.642948 36.734646 36.368302 46.39261 56.936757 9.660011 20.571525 13.804401 47.935756-9.295714 47.056736-23.085788-0.87288-34.960233-18.420535-63.7223-31.951713-28.752858-13.520945-57.753355-9.18008-57.753355-9.18008s40.404222 27.175943 23.868617 80.760348c-16.539698 53.579289-83.758636 71.522963-127.461997 85.514629-59.71401 19.108197-78.760808 47.14474-78.760808 47.14474s35.104519-20.042475 88.00638-20.757766c40.461527-0.549515 73.434499-6.54916 104.068194-20.150946 39.009456-17.322527 40.835034-8.16496 15.134699 6.789637-25.689079 14.957667-72.66395 38.10383-132.748397 38.10383-60.084447 0-249.423723 110.942765-249.423723 110.942765s211.813127-75.851549 309.819255-56.192813C440.576809 902.511042 586.712097 947.633728 586.282309 891.709021zM744.027006 505.508145c-21.938662-20.961404-28.508287-44.966121-14.683421-53.608965 13.851473-8.647961 42.850947 1.327228 64.810075 22.284539 21.933545 20.962427 28.509311 44.962028 14.660908 53.613058C794.979468 536.442692 765.958504 526.467503 744.027006 505.508145zM756.686327 856.716043c0 0 15.908318-70.291926-36.707017-73.282027-30.844495-1.746784-68.242244 25.978674-88.965218 63.661925-20.72502 37.687344-21.304212 102.997815 12.650111 108.507296 34.338063 5.577019 59.35176-28.649504 59.35176-28.649504s-44.060495 10.8143-45.025473-30.020734c-0.951675-40.83708 31.069623-70.372767 64.914452-68.50421C756.754888 830.290183 756.686327 856.716043 756.686327 856.716043z" /></svg>